# xmcd
#
# Track frame offsets: 
#        150
#        18060
#        36418
#        50147
#        70247
#        93272
#        109585
#        123243
#        134403
#        157598
#
# Disc length: 2391 seconds
#
# Revision: 0
# Processed by: cddbd v1.5.2PL0 Copyright (c) Steve Scherf et al.
# Submitted via: ExactAudioCopy v0.99pb5
#
DISCID=7a09550a
DTITLE=The Misers - Amplified Life Stories
DYEAR=2009
DGENRE=Blues
TTITLE0=Take Me Down
TTITLE1=Give it up for Love
TTITLE2=Shoot the Breeze
TTITLE3=Call Me Anytime
TTITLE4=Spinning
TTITLE5=The Long Walk Home
TTITLE6=Lord, Shuffle my Feet
TTITLE7=Bantam Weight
TTITLE8=Dont let Go (song for Lee)
TTITLE9=Dead before my Time
EXTD=
EXTT0=
EXTT1=
EXTT2=
EXTT3=
EXTT4=
EXTT5=
EXTT6=
EXTT7=
EXTT8=
EXTT9=
PLAYORDER=
